<svg xmlns="http://www.w3.org/2000/svg" xmlns:xlink="http://www.w3.org/1999/xlink" width="390" height="1559" viewBox="0 0 390 1559"><defs><style>.a{fill:none;}.b{clip-path:url(#p);}.c{fill:#f8e7dd;font-size:25px;font-family:CaslonCP;}.d{fill:#fff0e7;font-family:Poppins-Thin, Poppins;}.d,.h,.k,.m,.n{font-size:20px;}.d,.u,.w{font-weight:200;}.e,.v,.w,.y{fill:#fff;}.e{stroke:rgba(243,243,243,0.59);opacity:0.4;}.f,.t{isolation:isolate;}.f{clip-path:url(#b);}.g,.z{fill:#f4ebe4;}.h,.i,.k,.l,.m,.n,.o,.p{fill:#a17d71;}.h,.i,.k,.l,.n,.o{font-family:Poppins-Regular, Poppins;}.h,.i,.j{opacity:0.6;}.h,.i,.k,.l{text-decoration:line-through;}.i,.l,.o{font-size:19px;}.m,.p{font-family:Poppins-SemiBold, Poppins;font-weight:600;}.aa,.ab,.p{font-size:22px;}.q,.w{opacity:0.7;}.q{clip-path:url(#e);}.r{clip-path:url(#f);}.s{fill:rgba(101,71,61,0.7);}.s,.x{stroke:#65473d;}.t{clip-path:url(#m);}.u{fill:#b9cdd6;}.u,.v,.w{font-size:17px;}.u,.w{font-family:Poppins-ExtraLight, Poppins;}.v{font-family:Poppins-Medium, Poppins;font-weight:500;}.x{fill:url(#n);}.z{stroke:#707070;}.aa,.ab{fill:#7b574b;}.aa{font-family:Cinzel;font-weight:800;}.ab{font-family:Poppins-Light, Poppins;font-weight:300;}.ac{stroke:none;}.ad{fill:url(#a);}.ae{filter:url(#k);}.af{filter:url(#c);}</style><linearGradient id="a" x1="0.5" x2="0.5" y2="1" gradientUnits="objectBoundingBox"><stop offset="0" stop-color="#a17d71"/><stop offset="1" stop-color="#734f43"/></linearGradient><clipPath id="b"><rect class="a" x="264" y="5" width="358" height="524"/></clipPath><filter id="c" x="-107" y="680" width="370" height="522" filterUnits="userSpaceOnUse"><feOffset dx="5" dy="4" input="SourceAlpha"/><feGaussianBlur stdDeviation="21" result="d"/><feFlood flood-color="#907470" flood-opacity="0.431"/><feComposite operator="in" in2="d"/><feComposite in="SourceGraphic"/></filter><clipPath id="e"><rect class="a" width="1467" height="465"/></clipPath><clipPath id="f"><rect class="a" width="195" height="282"/></clipPath><filter id="k" x="15" y="192" width="370" height="522" filterUnits="userSpaceOnUse"><feOffset dx="5" dy="4" input="SourceAlpha"/><feGaussianBlur stdDeviation="21" result="l"/><feFlood flood-color="#907470" flood-opacity="0.431"/><feComposite operator="in" in2="l"/><feComposite in="SourceGraphic"/></filter><clipPath id="m"><rect class="a" x="110" width="323" height="24"/></clipPath><linearGradient id="n" x1="0.988" y1="0.5" x2="0" y2="0.5" gradientUnits="objectBoundingBox"><stop offset="0" stop-color="#6c4c41"/><stop offset="0.142" stop-color="#6c4c41" stop-opacity="0"/><stop offset="0.828" stop-color="#6c4b41" stop-opacity="0"/><stop offset="1" stop-color="#6c4b41"/></linearGradient><clipPath id="p"><rect width="390" height="1559"/></clipPath></defs><g id="o" class="b"><rect class="ad" width="390" height="1559"/><text class="c" transform="translate(60 107)"><tspan x="0" y="0">INTERNATIONAL</tspan><tspan x="0" y="28">DAYS FOR YOUR ART</tspan></text><text class="d" transform="translate(60 177)"><tspan x="0" y="0">#Make_it_international</tspan></text><g class="e" transform="translate(16 714)"><rect class="ac" width="358" height="457" rx="21"/><rect class="a" x="0.5" y="0.5" width="357" height="456" rx="20.5"/></g><g class="f" transform="translate(-248 675)"><g transform="translate(45 -177)"><g class="af" transform="matrix(1, 0, 0, 1, 203, -498)"><rect class="g" width="244" height="396" transform="translate(-49 739)"/></g><g transform="translate(197 324.724)"><text class="h" transform="translate(25 21.276)"><tspan x="0" y="0">Pancake Day</tspan></text><text class="i" transform="translate(0 20.276)"><tspan x="0" y="0">5</tspan></text></g><g class="j" transform="translate(197 360.541)"><text class="k" transform="translate(25 21.459)"><tspan x="0" y="0">Pancake Day</tspan></text><text class="l" transform="translate(0 20.459)"><tspan x="0" y="0">5</tspan></text></g><g transform="translate(197 397.476)"><text class="m" transform="translate(25 20.524)"><tspan x="0" y="0">Pancake Day</tspan></text><text class="m" transform="translate(0 20.524)"><tspan x="0" y="0">5</tspan></text></g><g transform="translate(197 433.293)"><text class="n" transform="translate(25 20.707)"><tspan x="0" y="0">Pancake Day</tspan></text><text class="o" transform="translate(0 19.707)"><tspan x="0" y="0">5</tspan></text></g><g transform="translate(197 470.228)"><text class="n" transform="translate(25 20.772)"><tspan x="0" y="0">Pancake Day</tspan></text><text class="o" transform="translate(0 19.772)"><tspan x="0" y="0">5</tspan></text></g><g transform="translate(197 506.044)"><text class="n" transform="translate(25 20.956)"><tspan x="0" y="0">Pancake Day</tspan></text><text class="o" transform="translate(0 19.956)"><tspan x="0" y="0">5</tspan></text></g><g transform="translate(197 542.98)"><text class="n" transform="translate(25 21.02)"><tspan x="0" y="0">Pancake Day</tspan></text><text class="o" transform="translate(0 20.02)"><tspan x="0" y="0">5</tspan></text></g><g transform="translate(197 578.796)"><text class="n" transform="translate(25 21.204)"><tspan x="0" y="0">Pancake Day</tspan></text><text class="o" transform="translate(0 20.204)"><tspan x="0" y="0">5</tspan></text></g><text class="p" transform="translate(197 294)"><tspan x="0" y="0">February</tspan></text></g><g class="q" transform="translate(463 64)"><g transform="translate(-154 -236)"><rect class="g" width="281" height="392" rx="14" transform="translate(154 239)"/><g class="r" transform="translate(197 319)"><g transform="translate(-187 -295)"><text class="n" transform="translate(218 321)"><tspan x="0" y="0">Pancake Day</tspan></text><text class="n" transform="translate(187 321)"><tspan x="0" y="0">5</tspan></text></g><g transform="translate(-187 -260)"><text class="n" transform="translate(218 321)"><tspan x="0" y="0">Pancake Day</tspan></text><text class="n" transform="translate(187 321)"><tspan x="0" y="0">5</tspan></text></g><g transform="translate(-187 -225)"><text class="n" transform="translate(218 321)"><tspan x="0" y="0">Pancake Day</tspan></text><text class="n" transform="translate(187 321)"><tspan x="0" y="0">5</tspan></text></g><g transform="translate(-187 -190)"><text class="n" transform="translate(218 321)"><tspan x="0" y="0">Pancake Day</tspan></text><text class="n" transform="translate(187 321)"><tspan x="0" y="0">5</tspan></text></g><g transform="translate(-187 -155)"><text class="n" transform="translate(218 321)"><tspan x="0" y="0">Pancake Day</tspan></text><text class="n" transform="translate(187 321)"><tspan x="0" y="0">5</tspan></text></g><g transform="translate(-187 -120)"><text class="n" transform="translate(218 321)"><tspan x="0" y="0">Pancake Day</tspan></text><text class="n" transform="translate(187 321)"><tspan x="0" y="0">5</tspan></text></g><g transform="translate(-187 -85)"><text class="n" transform="translate(218 321)"><tspan x="0" y="0">Pancake Day</tspan></text><text class="n" transform="translate(187 321)"><tspan x="0" y="0">5</tspan></text></g><g transform="translate(-187 -50)"><text class="n" transform="translate(218 321)"><tspan x="0" y="0">Pancake Day</tspan></text><text class="n" transform="translate(187 321)"><tspan x="0" y="0">5</tspan></text></g></g><text class="p" transform="translate(197 292)"><tspan x="0" y="0">February</tspan></text></g><g transform="translate(138 -236)"><rect class="g" width="281" height="392" rx="14" transform="translate(154 239)"/><g class="r" transform="translate(197 319)"><g transform="translate(-187 -295)"><text class="n" transform="translate(218 321)"><tspan x="0" y="0">Pancake Day</tspan></text><text class="n" transform="translate(187 321)"><tspan x="0" y="0">5</tspan></text></g><g transform="translate(-187 -260)"><text class="n" transform="translate(218 321)"><tspan x="0" y="0">Pancake Day</tspan></text><text class="n" transform="translate(187 321)"><tspan x="0" y="0">5</tspan></text></g><g transform="translate(-187 -225)"><text class="n" transform="translate(218 321)"><tspan x="0" y="0">Pancake Day</tspan></text><text class="n" transform="translate(187 321)"><tspan x="0" y="0">5</tspan></text></g><g transform="translate(-187 -190)"><text class="n" transform="translate(218 321)"><tspan x="0" y="0">Pancake Day</tspan></text><text class="n" transform="translate(187 321)"><tspan x="0" y="0">5</tspan></text></g><g transform="translate(-187 -155)"><text class="n" transform="translate(218 321)"><tspan x="0" y="0">Pancake Day</tspan></text><text class="n" transform="translate(187 321)"><tspan x="0" y="0">5</tspan></text></g><g transform="translate(-187 -120)"><text class="n" transform="translate(218 321)"><tspan x="0" y="0">Pancake Day</tspan></text><text class="n" transform="translate(187 321)"><tspan x="0" y="0">5</tspan></text></g><g transform="translate(-187 -85)"><text class="n" transform="translate(218 321)"><tspan x="0" y="0">Pancake Day</tspan></text><text class="n" transform="translate(187 321)"><tspan x="0" y="0">5</tspan></text></g><g transform="translate(-187 -50)"><text class="n" transform="translate(218 321)"><tspan x="0" y="0">Pancake Day</tspan></text><text class="n" transform="translate(187 321)"><tspan x="0" y="0">5</tspan></text></g></g><text class="p" transform="translate(197 292)"><tspan x="0" y="0">February</tspan></text></g><g transform="translate(430 -236)"><rect class="g" width="281" height="392" rx="14" transform="translate(154 239)"/><g class="r" transform="translate(197 319)"><g transform="translate(-187 -295)"><text class="n" transform="translate(218 321)"><tspan x="0" y="0">Pancake Day</tspan></text><text class="n" transform="translate(187 321)"><tspan x="0" y="0">5</tspan></text></g><g transform="translate(-187 -260)"><text class="n" transform="translate(218 321)"><tspan x="0" y="0">Pancake Day</tspan></text><text class="n" transform="translate(187 321)"><tspan x="0" y="0">5</tspan></text></g><g transform="translate(-187 -225)"><text class="n" transform="translate(218 321)"><tspan x="0" y="0">Pancake Day</tspan></text><text class="n" transform="translate(187 321)"><tspan x="0" y="0">5</tspan></text></g><g transform="translate(-187 -190)"><text class="n" transform="translate(218 321)"><tspan x="0" y="0">Pancake Day</tspan></text><text class="n" transform="translate(187 321)"><tspan x="0" y="0">5</tspan></text></g><g transform="translate(-187 -155)"><text class="n" transform="translate(218 321)"><tspan x="0" y="0">Pancake Day</tspan></text><text class="n" transform="translate(187 321)"><tspan x="0" y="0">5</tspan></text></g><g transform="translate(-187 -120)"><text class="n" transform="translate(218 321)"><tspan x="0" y="0">Pancake Day</tspan></text><text class="n" transform="translate(187 321)"><tspan x="0" y="0">5</tspan></text></g><g transform="translate(-187 -85)"><text class="n" transform="translate(218 321)"><tspan x="0" y="0">Pancake Day</tspan></text><text class="n" transform="translate(187 321)"><tspan x="0" y="0">5</tspan></text></g><g transform="translate(-187 -50)"><text class="n" transform="translate(218 321)"><tspan x="0" y="0">Pancake Day</tspan></text><text class="n" transform="translate(187 321)"><tspan x="0" y="0">5</tspan></text></g></g><text class="p" transform="translate(197 292)"><tspan x="0" y="0">February</tspan></text></g><g transform="translate(722 -236)"><rect class="g" width="281" height="392" rx="14" transform="translate(154 239)"/><g class="r" transform="translate(197 319)"><g transform="translate(-187 -295)"><text class="n" transform="translate(218 321)"><tspan x="0" y="0">Pancake Day</tspan></text><text class="n" transform="translate(187 321)"><tspan x="0" y="0">5</tspan></text></g><g transform="translate(-187 -260)"><text class="n" transform="translate(218 321)"><tspan x="0" y="0">Pancake Day</tspan></text><text class="n" transform="translate(187 321)"><tspan x="0" y="0">5</tspan></text></g><g transform="translate(-187 -225)"><text class="n" transform="translate(218 321)"><tspan x="0" y="0">Pancake Day</tspan></text><text class="n" transform="translate(187 321)"><tspan x="0" y="0">5</tspan></text></g><g transform="translate(-187 -190)"><text class="n" transform="translate(218 321)"><tspan x="0" y="0">Pancake Day</tspan></text><text class="n" transform="translate(187 321)"><tspan x="0" y="0">5</tspan></text></g><g transform="translate(-187 -155)"><text class="n" transform="translate(218 321)"><tspan x="0" y="0">Pancake Day</tspan></text><text class="n" transform="translate(187 321)"><tspan x="0" y="0">5</tspan></text></g><g transform="translate(-187 -120)"><text class="n" transform="translate(218 321)"><tspan x="0" y="0">Pancake Day</tspan></text><text class="n" transform="translate(187 321)"><tspan x="0" y="0">5</tspan></text></g><g transform="translate(-187 -85)"><text class="n" transform="translate(218 321)"><tspan x="0" y="0">Pancake Day</tspan></text><text class="n" transform="translate(187 321)"><tspan x="0" y="0">5</tspan></text></g><g transform="translate(-187 -50)"><text class="n" transform="translate(218 321)"><tspan x="0" y="0">Pancake Day</tspan></text><text class="n" transform="translate(187 321)"><tspan x="0" y="0">5</tspan></text></g></g><text class="p" transform="translate(197 292)"><tspan x="0" y="0">February</tspan></text></g><g transform="translate(1014 -236)"><rect class="g" width="281" height="392" rx="14" transform="translate(154 239)"/><g class="r" transform="translate(197 319)"><g transform="translate(-187 -295)"><text class="n" transform="translate(218 321)"><tspan x="0" y="0">Pancake Day</tspan></text><text class="n" transform="translate(187 321)"><tspan x="0" y="0">5</tspan></text></g><g transform="translate(-187 -260)"><text class="n" transform="translate(218 321)"><tspan x="0" y="0">Pancake Day</tspan></text><text class="n" transform="translate(187 321)"><tspan x="0" y="0">5</tspan></text></g><g transform="translate(-187 -225)"><text class="n" transform="translate(218 321)"><tspan x="0" y="0">Pancake Day</tspan></text><text class="n" transform="translate(187 321)"><tspan x="0" y="0">5</tspan></text></g><g transform="translate(-187 -190)"><text class="n" transform="translate(218 321)"><tspan x="0" y="0">Pancake Day</tspan></text><text class="n" transform="translate(187 321)"><tspan x="0" y="0">5</tspan></text></g><g transform="translate(-187 -155)"><text class="n" transform="translate(218 321)"><tspan x="0" y="0">Pancake Day</tspan></text><text class="n" transform="translate(187 321)"><tspan x="0" y="0">5</tspan></text></g><g transform="translate(-187 -120)"><text class="n" transform="translate(218 321)"><tspan x="0" y="0">Pancake Day</tspan></text><text class="n" transform="translate(187 321)"><tspan x="0" y="0">5</tspan></text></g><g transform="translate(-187 -85)"><text class="n" transform="translate(218 321)"><tspan x="0" y="0">Pancake Day</tspan></text><text class="n" transform="translate(187 321)"><tspan x="0" y="0">5</tspan></text></g><g transform="translate(-187 -50)"><text class="n" transform="translate(218 321)"><tspan x="0" y="0">Pancake Day</tspan></text><text class="n" transform="translate(187 321)"><tspan x="0" y="0">5</tspan></text></g></g><text class="p" transform="translate(197 292)"><tspan x="0" y="0">February</tspan></text></g></g></g><g transform="translate(-81 10)"><g class="ae" transform="matrix(1, 0, 0, 1, 81, -10)"><rect class="g" width="244" height="396" transform="translate(73 251)"/></g><g transform="translate(197 324.724)"><text class="h" transform="translate(25 21.276)"><tspan x="0" y="0">Pancake Day</tspan></text><text class="i" transform="translate(0 20.276)"><tspan x="0" y="0">5</tspan></text></g><g class="j" transform="translate(197 360.541)"><text class="k" transform="translate(25 21.459)"><tspan x="0" y="0">Pancake Day</tspan></text><text class="l" transform="translate(0 20.459)"><tspan x="0" y="0">5</tspan></text></g><g transform="translate(197 397.476)"><text class="m" transform="translate(25 20.524)"><tspan x="0" y="0">Pancake Day</tspan></text><text class="m" transform="translate(0 20.524)"><tspan x="0" y="0">5</tspan></text></g><g transform="translate(197 433.293)"><text class="n" transform="translate(25 20.707)"><tspan x="0" y="0">Pancake Day</tspan></text><text class="o" transform="translate(0 19.707)"><tspan x="0" y="0">5</tspan></text></g><g transform="translate(197 470.228)"><text class="n" transform="translate(25 20.772)"><tspan x="0" y="0">Pancake Day</tspan></text><text class="o" transform="translate(0 19.772)"><tspan x="0" y="0">5</tspan></text></g><g transform="translate(197 506.044)"><text class="n" transform="translate(25 20.956)"><tspan x="0" y="0">Pancake Day</tspan></text><text class="o" transform="translate(0 19.956)"><tspan x="0" y="0">5</tspan></text></g><g transform="translate(197 542.98)"><text class="n" transform="translate(25 21.02)"><tspan x="0" y="0">Pancake Day</tspan></text><text class="o" transform="translate(0 20.02)"><tspan x="0" y="0">5</tspan></text></g><g transform="translate(197 578.796)"><text class="n" transform="translate(25 21.204)"><tspan x="0" y="0">Pancake Day</tspan></text><text class="o" transform="translate(0 20.204)"><tspan x="0" y="0">5</tspan></text></g><text class="p" transform="translate(197 294)"><tspan x="0" y="0">February</tspan></text></g><g transform="translate(0 487)"><g class="s" transform="translate(12 717)"><rect class="ac" width="366" height="45" rx="22.5"/><rect class="a" x="0.5" y="0.5" width="365" height="44" rx="22"/></g><g class="t" transform="translate(-81 726)"><g transform="translate(-276.714 -948)"><text class="u" transform="translate(368.714 966)"><tspan x="0" y="0">JAN</tspan></text><text class="v" transform="translate(413.714 966)"><tspan x="0" y="0">FEB</tspan></text><text class="w" transform="translate(457.714 966)"><tspan x="0" y="0">MAR</tspan></text><text class="w" transform="translate(507.714 966)"><tspan x="0" y="0">APR</tspan></text><text class="w" transform="translate(552.714 966)"><tspan x="0" y="0">MAY</tspan></text><text class="w" transform="translate(603.714 966)"><tspan x="0" y="0">JUN</tspan></text><text class="w" transform="translate(649.714 966)"><tspan x="0" y="0">JUL</tspan></text><text class="w" transform="translate(690.714 966)"><tspan x="0" y="0">AUG</tspan></text><text class="w" transform="translate(741.714 966)"><tspan x="0" y="0">SEP</tspan></text><text class="w" transform="translate(783.714 966)"><tspan x="0" y="0">OCT</tspan></text><text class="w" transform="translate(835.714 966)"><tspan x="0" y="0">NOV</tspan></text><text class="w" transform="translate(887.714 966)"><tspan x="0" y="0">DEC</tspan></text></g></g><g class="x" transform="translate(12 717)"><rect class="ac" width="366" height="45" rx="22.5"/><rect class="a" x="0.5" y="0.5" width="365" height="44" rx="22"/></g></g><g transform="translate(-702.249 486)"><path class="y" d="M16,32A16,16,0,0,1,9.772,1.257,16,16,0,0,1,22.228,30.743,15.9,15.9,0,0,1,16,32ZM14,10.373a.84.84,0,0,0-.6.248l-.791.8a.83.83,0,0,0-.248.592.838.838,0,0,0,.248.6L16.006,16l-3.389,3.389a.83.83,0,0,0-.248.592.838.838,0,0,0,.248.6l.794.795a.83.83,0,0,0,.594.248.841.841,0,0,0,.6-.248L19.384,16.6a.842.842,0,0,0,0-1.2L14.6,10.621A.831.831,0,0,0,14,10.373Z" transform="translate(925.248 791)"/><path class="y" d="M16,32A16,16,0,0,1,9.772,1.257,16,16,0,0,1,22.228,30.743,15.9,15.9,0,0,1,16,32Zm2-21.627a.831.831,0,0,0-.595.248L12.619,15.4a.842.842,0,0,0,0,1.2L17.4,21.379a.839.839,0,0,0,.6.248.83.83,0,0,0,.594-.248l.795-.795a.839.839,0,0,0,.248-.6.83.83,0,0,0-.248-.592L15.994,16l3.389-3.389a.839.839,0,0,0,.248-.6.83.83,0,0,0-.248-.592l-.791-.8A.84.84,0,0,0,18,10.373Z" transform="translate(838.249 791)"/></g><path class="z" d="M-39.3,1055l23.464-73.571,114.119,28.831,144.673-17.664,114.392,5.047,112.71-16.214-7.886,503.6L-41.6,1443.435Z" transform="translate(-42.223 377.594)"/><g transform="translate(213.169 696)"><text class="aa" transform="translate(-88.169 760)"><tspan x="-76.769" y="0">MAKE IT ART</tspan></text><text class="aa" transform="translate(91.831 760)"><tspan x="-36.08" y="0">SIPUA</tspan></text><text class="ab" transform="translate(-159.169 812)"><tspan x="0" y="0">Devloped by Elie Shamout</tspan></text></g></g></svg>