<svg xmlns="http://www.w3.org/2000/svg" xmlns:xlink="http://www.w3.org/1999/xlink" width="1920" height="1080" viewBox="0 0 1920 1080"><defs><style>.a{fill:none;}.b{clip-path:url(#m);}.c,.t,.u,.v{fill:#fff;}.c{stroke:rgba(243,243,243,0.59);opacity:0.4;}.d{isolation:isolate;clip-path:url(#b);}.e,.w{fill:#f4ebe4;}.f,.h,.i,.j{fill:#a17d71;}.f,.h,.i,.j,.m,.n,.o{font-size:25px;}.f,.h,.j,.m,.n{font-family:Poppins-Regular, Poppins;}.f,.g,.l,.o{opacity:0.6;}.f,.h,.m{text-decoration:line-through;}.i,.o{font-family:Poppins-SemiBold, Poppins;font-weight:600;}.k{fill:rgba(216,209,199,0.6);stroke:#c8d0d2;}.l,.q{clip-path:url(#e);}.m,.n,.o{fill:#4f4f4f;}.p,.u{opacity:0.7;}.p{clip-path:url(#f);}.r{fill:rgba(101,71,61,0.7);stroke:#65473d;}.s{fill:#b9cdd6;}.s,.t,.u,.y{font-size:20px;}.s,.u{font-family:Poppins-ExtraLight, Poppins;}.s,.u,.y{font-weight:200;}.t{font-family:Poppins-Medium, Poppins;font-weight:500;}.w{stroke:#707070;}.x{fill:#f8e7dd;font-size:45px;font-family:CaslonCP;}.y{fill:#fff0e7;font-family:Poppins-Thin, Poppins;}.aa,.z{fill:#7b574b;font-size:22px;}.z{font-family:Cinzel;font-weight:800;}.aa{font-family:Poppins-Light, Poppins;font-weight:300;}.ab{stroke:none;}.ac{fill:url(#a);}.ad{filter:url(#c);}</style><linearGradient id="a" x1="0.5" x2="0.5" y2="1" gradientUnits="objectBoundingBox"><stop offset="0" stop-color="#a17d71"/><stop offset="1" stop-color="#734f43"/></linearGradient><clipPath id="b"><rect class="a" x="66" width="1853" height="589"/></clipPath><filter id="c" x="224" y="187" width="410" height="589" filterUnits="userSpaceOnUse"><feOffset dx="5" dy="4" input="SourceAlpha"/><feGaussianBlur stdDeviation="21" result="d"/><feFlood flood-color="#907470" flood-opacity="0.431"/><feComposite operator="in" in2="d"/><feComposite in="SourceGraphic"/></filter><clipPath id="e"><rect class="a" width="195" height="352"/></clipPath><clipPath id="f"><rect class="a" width="1503" height="465"/></clipPath><clipPath id="m"><rect width="1920" height="1080"/></clipPath></defs><g id="l" class="b"><rect class="ac" width="1920" height="1080"/><g class="c" transform="translate(39 220)"><rect class="ab" width="1853" height="515" rx="21"/><rect class="a" x="0.5" y="0.5" width="1852" height="514" rx="20.5"/></g><g class="d" transform="translate(-27 187)"><g transform="translate(155 -177)"><g class="ad" transform="matrix(1, 0, 0, 1, -128, -10)"><rect class="e" width="284" height="463" transform="translate(282 246)"/></g><g transform="translate(10 24)"><text class="f" transform="translate(218 321)"><tspan x="0" y="0">Pancake Day</tspan></text><text class="f" transform="translate(187 321)"><tspan x="0" y="0">5</tspan></text></g><g class="g" transform="translate(10 69)"><text class="h" transform="translate(218 321)"><tspan x="0" y="0">Pancake Day</tspan></text><text class="h" transform="translate(187 321)"><tspan x="0" y="0">5</tspan></text></g><g transform="translate(10 114)"><text class="i" transform="translate(218 321)"><tspan x="0" y="0">Pancake Day</tspan></text><text class="i" transform="translate(187 321)"><tspan x="0" y="0">5</tspan></text></g><g transform="translate(10 159)"><text class="j" transform="translate(218 321)"><tspan x="0" y="0">Pancake Day</tspan></text><text class="j" transform="translate(187 321)"><tspan x="0" y="0">5</tspan></text></g><g transform="translate(10 204)"><text class="j" transform="translate(218 321)"><tspan x="0" y="0">Pancake Day</tspan></text><text class="j" transform="translate(187 321)"><tspan x="0" y="0">5</tspan></text></g><g transform="translate(10 249)"><text class="j" transform="translate(218 321)"><tspan x="0" y="0">Pancake Day</tspan></text><text class="j" transform="translate(187 321)"><tspan x="0" y="0">5</tspan></text></g><g transform="translate(10 294)"><text class="j" transform="translate(218 321)"><tspan x="0" y="0">Pancake Day</tspan></text><text class="j" transform="translate(187 321)"><tspan x="0" y="0">5</tspan></text></g><g transform="translate(10 339)"><text class="j" transform="translate(218 321)"><tspan x="0" y="0">Pancake Day</tspan></text><text class="j" transform="translate(187 321)"><tspan x="0" y="0">5</tspan></text></g><text class="i" transform="translate(197 292)"><tspan x="0" y="0">February</tspan></text></g><g transform="translate(-154 -178)"><g class="k" transform="translate(154 236)"><rect class="ab" width="281" height="465" rx="18"/><rect class="a" x="0.5" y="0.5" width="280" height="464" rx="17.5"/></g><g class="l" transform="translate(197 319)"><g transform="translate(-187 -295)"><text class="m" transform="translate(218 321)"><tspan x="0" y="0">Pancake Day</tspan></text><text class="n" transform="translate(187 321)"><tspan x="0" y="0">5</tspan></text></g><g transform="translate(-187 -250)"><text class="m" transform="translate(218 321)"><tspan x="0" y="0">Pancake Day</tspan></text><text class="n" transform="translate(187 321)"><tspan x="0" y="0">5</tspan></text></g><g transform="translate(-187 -205)"><text class="m" transform="translate(218 321)"><tspan x="0" y="0">Pancake Day</tspan></text><text class="n" transform="translate(187 321)"><tspan x="0" y="0">5</tspan></text></g><g transform="translate(-187 -160)"><text class="m" transform="translate(218 321)"><tspan x="0" y="0">Pancake Day</tspan></text><text class="n" transform="translate(187 321)"><tspan x="0" y="0">5</tspan></text></g><g transform="translate(-187 -115)"><text class="m" transform="translate(218 321)"><tspan x="0" y="0">Pancake Day</tspan></text><text class="n" transform="translate(187 321)"><tspan x="0" y="0">5</tspan></text></g><g transform="translate(-187 -70)"><text class="m" transform="translate(218 321)"><tspan x="0" y="0">Pancake Day</tspan></text><text class="n" transform="translate(187 321)"><tspan x="0" y="0">5</tspan></text></g><g transform="translate(-187 -25)"><text class="m" transform="translate(218 321)"><tspan x="0" y="0">Pancake Day</tspan></text><text class="n" transform="translate(187 321)"><tspan x="0" y="0">5</tspan></text></g><g transform="translate(-187 20)"><text class="m" transform="translate(218 321)"><tspan x="0" y="0">Pancake Day</tspan></text><text class="n" transform="translate(187 321)"><tspan x="0" y="0">5</tspan></text></g></g><text class="o" transform="translate(197 292)"><tspan x="0" y="0">Januray</tspan></text></g><g class="p" transform="translate(618 58)"><g transform="translate(-154 -236)"><rect class="e" width="281" height="465" rx="18" transform="translate(154 236)"/><g class="q" transform="translate(197 319)"><g transform="translate(-187 -295)"><text class="j" transform="translate(218 321)"><tspan x="0" y="0">Pancake Day</tspan></text><text class="j" transform="translate(187 321)"><tspan x="0" y="0">5</tspan></text></g><g transform="translate(-187 -250)"><text class="j" transform="translate(218 321)"><tspan x="0" y="0">Pancake Day</tspan></text><text class="j" transform="translate(187 321)"><tspan x="0" y="0">5</tspan></text></g><g transform="translate(-187 -205)"><text class="j" transform="translate(218 321)"><tspan x="0" y="0">Pancake Day</tspan></text><text class="j" transform="translate(187 321)"><tspan x="0" y="0">5</tspan></text></g><g transform="translate(-187 -160)"><text class="j" transform="translate(218 321)"><tspan x="0" y="0">Pancake Day</tspan></text><text class="j" transform="translate(187 321)"><tspan x="0" y="0">5</tspan></text></g><g transform="translate(-187 -115)"><text class="j" transform="translate(218 321)"><tspan x="0" y="0">Pancake Day</tspan></text><text class="j" transform="translate(187 321)"><tspan x="0" y="0">5</tspan></text></g><g transform="translate(-187 -70)"><text class="j" transform="translate(218 321)"><tspan x="0" y="0">Pancake Day</tspan></text><text class="j" transform="translate(187 321)"><tspan x="0" y="0">5</tspan></text></g><g transform="translate(-187 -25)"><text class="j" transform="translate(218 321)"><tspan x="0" y="0">Pancake Day</tspan></text><text class="j" transform="translate(187 321)"><tspan x="0" y="0">5</tspan></text></g><g transform="translate(-187 20)"><text class="j" transform="translate(218 321)"><tspan x="0" y="0">Pancake Day</tspan></text><text class="j" transform="translate(187 321)"><tspan x="0" y="0">5</tspan></text></g></g><text class="i" transform="translate(197 292)"><tspan x="0" y="0">February</tspan></text></g><g transform="translate(147 -236)"><rect class="e" width="281" height="465" rx="18" transform="translate(154 236)"/><g class="q" transform="translate(197 319)"><g transform="translate(-187 -295)"><text class="j" transform="translate(218 321)"><tspan x="0" y="0">Pancake Day</tspan></text><text class="j" transform="translate(187 321)"><tspan x="0" y="0">5</tspan></text></g><g transform="translate(-187 -250)"><text class="j" transform="translate(218 321)"><tspan x="0" y="0">Pancake Day</tspan></text><text class="j" transform="translate(187 321)"><tspan x="0" y="0">5</tspan></text></g><g transform="translate(-187 -205)"><text class="j" transform="translate(218 321)"><tspan x="0" y="0">Pancake Day</tspan></text><text class="j" transform="translate(187 321)"><tspan x="0" y="0">5</tspan></text></g><g transform="translate(-187 -160)"><text class="j" transform="translate(218 321)"><tspan x="0" y="0">Pancake Day</tspan></text><text class="j" transform="translate(187 321)"><tspan x="0" y="0">5</tspan></text></g><g transform="translate(-187 -115)"><text class="j" transform="translate(218 321)"><tspan x="0" y="0">Pancake Day</tspan></text><text class="j" transform="translate(187 321)"><tspan x="0" y="0">5</tspan></text></g><g transform="translate(-187 -70)"><text class="j" transform="translate(218 321)"><tspan x="0" y="0">Pancake Day</tspan></text><text class="j" transform="translate(187 321)"><tspan x="0" y="0">5</tspan></text></g><g transform="translate(-187 -25)"><text class="j" transform="translate(218 321)"><tspan x="0" y="0">Pancake Day</tspan></text><text class="j" transform="translate(187 321)"><tspan x="0" y="0">5</tspan></text></g><g transform="translate(-187 20)"><text class="j" transform="translate(218 321)"><tspan x="0" y="0">Pancake Day</tspan></text><text class="j" transform="translate(187 321)"><tspan x="0" y="0">5</tspan></text></g></g><text class="i" transform="translate(197 292)"><tspan x="0" y="0">February</tspan></text></g><g transform="translate(448 -236)"><rect class="e" width="281" height="465" rx="18" transform="translate(154 236)"/><g class="q" transform="translate(197 319)"><g transform="translate(-187 -295)"><text class="j" transform="translate(218 321)"><tspan x="0" y="0">Pancake Day</tspan></text><text class="j" transform="translate(187 321)"><tspan x="0" y="0">5</tspan></text></g><g transform="translate(-187 -250)"><text class="j" transform="translate(218 321)"><tspan x="0" y="0">Pancake Day</tspan></text><text class="j" transform="translate(187 321)"><tspan x="0" y="0">5</tspan></text></g><g transform="translate(-187 -205)"><text class="j" transform="translate(218 321)"><tspan x="0" y="0">Pancake Day</tspan></text><text class="j" transform="translate(187 321)"><tspan x="0" y="0">5</tspan></text></g><g transform="translate(-187 -160)"><text class="j" transform="translate(218 321)"><tspan x="0" y="0">Pancake Day</tspan></text><text class="j" transform="translate(187 321)"><tspan x="0" y="0">5</tspan></text></g><g transform="translate(-187 -115)"><text class="j" transform="translate(218 321)"><tspan x="0" y="0">Pancake Day</tspan></text><text class="j" transform="translate(187 321)"><tspan x="0" y="0">5</tspan></text></g><g transform="translate(-187 -70)"><text class="j" transform="translate(218 321)"><tspan x="0" y="0">Pancake Day</tspan></text><text class="j" transform="translate(187 321)"><tspan x="0" y="0">5</tspan></text></g><g transform="translate(-187 -25)"><text class="j" transform="translate(218 321)"><tspan x="0" y="0">Pancake Day</tspan></text><text class="j" transform="translate(187 321)"><tspan x="0" y="0">5</tspan></text></g><g transform="translate(-187 20)"><text class="j" transform="translate(218 321)"><tspan x="0" y="0">Pancake Day</tspan></text><text class="j" transform="translate(187 321)"><tspan x="0" y="0">5</tspan></text></g></g><text class="i" transform="translate(197 292)"><tspan x="0" y="0">February</tspan></text></g><g transform="translate(749 -236)"><rect class="e" width="281" height="465" rx="18" transform="translate(154 236)"/><g class="q" transform="translate(197 319)"><g transform="translate(-187 -295)"><text class="j" transform="translate(218 321)"><tspan x="0" y="0">Pancake Day</tspan></text><text class="j" transform="translate(187 321)"><tspan x="0" y="0">5</tspan></text></g><g transform="translate(-187 -250)"><text class="j" transform="translate(218 321)"><tspan x="0" y="0">Pancake Day</tspan></text><text class="j" transform="translate(187 321)"><tspan x="0" y="0">5</tspan></text></g><g transform="translate(-187 -205)"><text class="j" transform="translate(218 321)"><tspan x="0" y="0">Pancake Day</tspan></text><text class="j" transform="translate(187 321)"><tspan x="0" y="0">5</tspan></text></g><g transform="translate(-187 -160)"><text class="j" transform="translate(218 321)"><tspan x="0" y="0">Pancake Day</tspan></text><text class="j" transform="translate(187 321)"><tspan x="0" y="0">5</tspan></text></g><g transform="translate(-187 -115)"><text class="j" transform="translate(218 321)"><tspan x="0" y="0">Pancake Day</tspan></text><text class="j" transform="translate(187 321)"><tspan x="0" y="0">5</tspan></text></g><g transform="translate(-187 -70)"><text class="j" transform="translate(218 321)"><tspan x="0" y="0">Pancake Day</tspan></text><text class="j" transform="translate(187 321)"><tspan x="0" y="0">5</tspan></text></g><g transform="translate(-187 -25)"><text class="j" transform="translate(218 321)"><tspan x="0" y="0">Pancake Day</tspan></text><text class="j" transform="translate(187 321)"><tspan x="0" y="0">5</tspan></text></g><g transform="translate(-187 20)"><text class="j" transform="translate(218 321)"><tspan x="0" y="0">Pancake Day</tspan></text><text class="j" transform="translate(187 321)"><tspan x="0" y="0">5</tspan></text></g></g><text class="i" transform="translate(197 292)"><tspan x="0" y="0">February</tspan></text></g><g transform="translate(1050 -236)"><rect class="e" width="281" height="465" rx="18" transform="translate(154 236)"/><g class="q" transform="translate(197 319)"><g transform="translate(-187 -295)"><text class="j" transform="translate(218 321)"><tspan x="0" y="0">Pancake Day</tspan></text><text class="j" transform="translate(187 321)"><tspan x="0" y="0">5</tspan></text></g><g transform="translate(-187 -250)"><text class="j" transform="translate(218 321)"><tspan x="0" y="0">Pancake Day</tspan></text><text class="j" transform="translate(187 321)"><tspan x="0" y="0">5</tspan></text></g><g transform="translate(-187 -205)"><text class="j" transform="translate(218 321)"><tspan x="0" y="0">Pancake Day</tspan></text><text class="j" transform="translate(187 321)"><tspan x="0" y="0">5</tspan></text></g><g transform="translate(-187 -160)"><text class="j" transform="translate(218 321)"><tspan x="0" y="0">Pancake Day</tspan></text><text class="j" transform="translate(187 321)"><tspan x="0" y="0">5</tspan></text></g><g transform="translate(-187 -115)"><text class="j" transform="translate(218 321)"><tspan x="0" y="0">Pancake Day</tspan></text><text class="j" transform="translate(187 321)"><tspan x="0" y="0">5</tspan></text></g><g transform="translate(-187 -70)"><text class="j" transform="translate(218 321)"><tspan x="0" y="0">Pancake Day</tspan></text><text class="j" transform="translate(187 321)"><tspan x="0" y="0">5</tspan></text></g><g transform="translate(-187 -25)"><text class="j" transform="translate(218 321)"><tspan x="0" y="0">Pancake Day</tspan></text><text class="j" transform="translate(187 321)"><tspan x="0" y="0">5</tspan></text></g><g transform="translate(-187 20)"><text class="j" transform="translate(218 321)"><tspan x="0" y="0">Pancake Day</tspan></text><text class="j" transform="translate(187 321)"><tspan x="0" y="0">5</tspan></text></g></g><text class="i" transform="translate(197 292)"><tspan x="0" y="0">February</tspan></text></g></g></g><g transform="translate(0 5)"><g class="r" transform="translate(481 776)"><rect class="ab" width="960" height="69" rx="34.5"/><rect class="a" x="0.5" y="0.5" width="959" height="68" rx="34"/></g><g transform="translate(0 -151)"><text class="s" transform="translate(517 970)"><tspan x="0" y="0">JAN</tspan></text><text class="t" transform="translate(593 970)"><tspan x="0" y="0">FEB</tspan></text><text class="u" transform="translate(662 970)"><tspan x="0" y="0">MAR</tspan></text><text class="u" transform="translate(744 970)"><tspan x="0" y="0">APR</tspan></text><text class="u" transform="translate(818 970)"><tspan x="0" y="0">MAY</tspan></text><text class="u" transform="translate(901 970)"><tspan x="0" y="0">JUN</tspan></text><text class="u" transform="translate(976 970)"><tspan x="0" y="0">JUL</tspan></text><text class="u" transform="translate(1045 970)"><tspan x="0" y="0">AUG</tspan></text><text class="u" transform="translate(1124 970)"><tspan x="0" y="0">SEP</tspan></text><text class="u" transform="translate(1193 970)"><tspan x="0" y="0">OCT</tspan></text><text class="u" transform="translate(1271 970)"><tspan x="0" y="0">NOV</tspan></text><text class="u" transform="translate(1352 970)"><tspan x="0" y="0">DEC</tspan></text></g><g transform="translate(-447.868 -12)"><path class="v" d="M32,64A32.008,32.008,0,0,1,19.544,2.515a32.008,32.008,0,0,1,24.911,58.97A31.8,31.8,0,0,1,32,64ZM28.009,20.746a1.68,1.68,0,0,0-1.195.5l-1.581,1.6a1.659,1.659,0,0,0-.5,1.184,1.677,1.677,0,0,0,.5,1.2l6.778,6.778-6.778,6.779a1.659,1.659,0,0,0-.5,1.184,1.677,1.677,0,0,0,.5,1.2l1.589,1.589a1.66,1.66,0,0,0,1.189.5,1.683,1.683,0,0,0,1.2-.5L38.768,33.2a1.684,1.684,0,0,0-.007-2.391L29.2,21.242A1.662,1.662,0,0,0,28.009,20.746Z" transform="translate(1913.868 791)"/><path class="v" d="M32,64A32.008,32.008,0,0,1,19.544,2.515a32.008,32.008,0,0,1,24.911,58.97A31.8,31.8,0,0,1,32,64Zm3.99-43.254a1.662,1.662,0,0,0-1.189.5L25.239,30.8a1.683,1.683,0,0,0-.006,2.391l9.563,9.563a1.679,1.679,0,0,0,1.194.5,1.66,1.66,0,0,0,1.189-.5l1.589-1.589a1.678,1.678,0,0,0,.5-1.2,1.66,1.66,0,0,0-.5-1.184l-6.779-6.779,6.779-6.778a1.678,1.678,0,0,0,.5-1.2,1.66,1.66,0,0,0-.5-1.184l-1.582-1.6A1.68,1.68,0,0,0,35.991,20.746Z" transform="translate(837.868 791)"/></g></g><path class="w" d="M-15.707,1043.272l94.246-64.549L553.458,1026.1l465.679-32.2,720.694,14.87,258.711-49.368-22.177,249.143-2023.487-36.49Z" transform="translate(-14.785 -93.649)"/><text class="x" transform="translate(114 122)"><tspan x="0" y="0">INTERNATIONAL DAYS FOR YOUR ART</tspan></text><text class="y" transform="translate(1600 114)"><tspan x="0" y="0">#Make_it_international</tspan></text><text class="z" transform="translate(677 997)"><tspan x="-76.769" y="0">MAKE IT ART</tspan></text><text class="z" transform="translate(1283 997)"><tspan x="-36.08" y="0">SIPUA</tspan></text><text class="aa" transform="translate(819 1049)"><tspan x="0" y="0">Devloped by Elie Shamout</tspan></text></g></svg>